<?xml version="1.0" encoding="UTF-8"?>
<svg width="806px" height="245px" viewBox="0 0 806 245" version="1.1" xmlns="http://www.w3.org/2000/svg" xmlns:xlink="http://www.w3.org/1999/xlink">
    <!-- Generator: Sketch 52.3 (67297) - http://www.bohemiancoding.com/sketch -->
    <title>AMAGI</title>
    <desc>Created with Sketch.</desc>
    <g id="Logo" stroke="none" stroke-width="1" fill="none" fill-rule="evenodd">
        <g id="Logo-Outline" transform="translate(-59.000000, -45.000000)" fill="#000000" stroke="#FFFFFF" stroke-width="5">
            <path d="M148.644531,247 L185.265625,210.378906 L213.341797,210.378906 L213.341797,150.930664 L117.272461,247 L65.2705078,247 L249.962891,62.3076172 L249.962891,247 L148.644531,247 Z M311.120117,163.015625 L311.120117,283.62 L274.499023,247 L274.499023,74.3925781 L353.844727,153.738281 L433.19043,74.3925781 L433.19043,247 L396.569336,247 L396.569336,163.015625 L353.844727,205.740234 L311.120117,163.015625 Z M516.855469,247 L553.476562,210.378906 L581.552734,210.378906 L581.552734,150.930664 L485.483398,247 L433.481445,247 L618.173828,62.3076172 L618.173828,247 L516.855469,247 Z M801.279297,88.3085938 L801.279297,124.929688 L679.208984,124.929688 L679.208984,210.378906 L764.658203,210.378906 L764.658203,185.964844 L703.623047,185.964844 L703.623047,149.34375 L801.279297,149.34375 L801.279297,247 L642.587891,247 L642.587891,88.3085938 L801.279297,88.3085938 Z M825.693359,247 L825.693359,51.7 L862.314453,88.3085938 L862.314453,283.621094 L825.693359,247 Z" id="AMAGI"></path>
        </g>
    </g>
</svg>